<svg width="858" height="659" viewBox="0 0 858 659" fill="none" xmlns="http://www.w3.org/2000/svg">
<path d="M720 350C766.4 278 806 269.333 820 274C829.6 274.574 848.667 286.239 857 292L857 0.999969L32 0.999969L32 658L121 658C172 632 147 597 199 483C251 369 364 425 457 450C550 475 662 440 720 350Z" fill="#2DF0FD" stroke="#2DF0FD"/>
<path d="M721 204C769 98.3999 809 61.9999 823 56.9999L851 0.999939L1 0.999939L1 249C1.66669 256.333 11.8 273 47 281C91 291 115 275 187 210C296.418 111.219 419 195 476 236C533 277 661 336 721 204Z" fill="#3D4771" stroke="#3C4671"/>
</svg>
